<svg xmlns="http://www.w3.org/2000/svg" width="600" viewBox="0 0 600 199.5" height="199.5" version="1.0"><g fill="#1D1233"><g><g><path d="M 43.667969 1.542969 C 64.984375 1.542969 79.113281 -9.890625 79.113281 -27.097656 C 79.113281 -40.199219 71.023438 -48.804688 54.96875 -53.8125 L 35.960938 -59.71875 C 29.796875 -61.648438 26.457031 -64.984375 26.457031 -69.480469 C 26.457031 -75.390625 32.234375 -79.882812 40.96875 -79.882812 C 51.242188 -79.882812 58.949219 -74.234375 62.160156 -65.113281 L 78.855469 -72.949219 C 73.71875 -87.074219 59.335938 -97.222656 40.96875 -97.222656 C 20.292969 -97.222656 6.550781 -85.792969 6.550781 -68.710938 C 6.550781 -55.996094 14.253906 -46.75 30.566406 -41.613281 L 50.089844 -35.445312 C 55.738281 -33.648438 59.207031 -30.953125 59.207031 -25.941406 C 59.207031 -20.292969 53.425781 -15.796875 43.667969 -15.796875 C 34.164062 -15.796875 24.53125 -21.960938 19.90625 -33.136719 L 3.210938 -25.300781 C 8.476562 -9.117188 24.660156 1.542969 43.667969 1.542969 Z M 43.667969 1.542969" transform="translate(5.783 146.112)"/></g></g></g><g fill="#1D1233"><g><g><path d="M 36.21875 -71.664062 C 21.320312 -71.664062 9.246094 -64.214844 5.136719 -52.65625 L 21.703125 -44.695312 C 23.757812 -50.988281 29.410156 -54.96875 36.21875 -54.96875 C 42.640625 -54.96875 47.003906 -51.5 47.003906 -46.234375 L 47.003906 -43.921875 L 25.042969 -39.300781 C 10.789062 -36.347656 2.570312 -29.539062 2.570312 -19.136719 C 2.570312 -7.449219 12.585938 1.542969 28.511719 1.542969 C 36.601562 1.542969 43.023438 -0.898438 48.289062 -6.421875 L 48.289062 0 L 66.269531 0 L 66.269531 -46.234375 C 66.269531 -61.261719 54.070312 -71.664062 36.21875 -71.664062 Z M 31.464844 -12.585938 C 25.941406 -12.585938 22.476562 -15.15625 22.476562 -19.394531 C 22.476562 -22.605469 24.53125 -25.042969 28.511719 -25.941406 L 47.003906 -30.054688 L 47.003906 -26.714844 C 47.003906 -18.878906 40.199219 -12.585938 31.464844 -12.585938 Z M 31.464844 -12.585938" transform="translate(88.742 146.112)"/></g></g></g><g fill="#1D1233"><g><g><path d="M 85.019531 -71.664062 C 75.515625 -71.664062 67.683594 -67.296875 63.703125 -60.875 C 59.207031 -67.941406 51.757812 -71.664062 42.765625 -71.664062 C 34.289062 -71.664062 27.742188 -68.324219 24.402344 -61.648438 L 24.402344 -70.125 L 6.421875 -70.125 L 6.421875 0 L 25.6875 0 L 25.6875 -40.96875 C 25.6875 -49.574219 30.308594 -54.324219 37.117188 -54.324219 C 43.921875 -54.324219 48.546875 -49.574219 48.546875 -40.96875 L 48.546875 0 L 67.8125 0 L 67.8125 -40.96875 C 67.8125 -49.574219 72.433594 -54.324219 79.242188 -54.324219 C 86.046875 -54.324219 90.671875 -49.574219 90.671875 -40.96875 L 90.671875 0 L 109.9375 0 L 109.9375 -45.078125 C 109.9375 -61.261719 99.664062 -71.664062 85.019531 -71.664062 Z M 85.019531 -71.664062" transform="translate(158.86 146.112)"/></g></g></g><g fill="#1D1233"><g><g><path d="M 72.820312 -37.117188 C 72.820312 -56.507812 57.664062 -71.664062 38.015625 -71.664062 C 17.980469 -71.664062 2.570312 -56.125 2.570312 -35.191406 C 2.570312 -14.898438 17.082031 1.542969 39.300781 1.542969 C 53.683594 1.542969 65.242188 -5.265625 69.480469 -15.539062 L 54.070312 -22.859375 C 51.371094 -18.109375 46.363281 -15.15625 39.554688 -15.15625 C 30.054688 -15.15625 23.757812 -20.804688 22.605469 -29.667969 L 71.921875 -29.667969 C 72.5625 -31.59375 72.820312 -34.289062 72.820312 -37.117188 Z M 22.988281 -43.792969 C 24.914062 -51.886719 30.4375 -56.253906 38.015625 -56.253906 C 45.976562 -56.253906 51.628906 -51.242188 52.398438 -43.792969 Z M 22.988281 -43.792969" transform="translate(273.924 146.112)"/></g></g></g><g fill="#1D1233"><g><g><path d="M 58.308594 -95.679688 L 58.308594 -64.214844 C 53.554688 -68.96875 46.492188 -71.664062 38.144531 -71.664062 C 18.238281 -71.664062 2.570312 -55.609375 2.570312 -35.0625 C 2.570312 -14.640625 17.851562 1.542969 38.273438 1.542969 C 46.878906 1.542969 54.582031 -1.285156 59.59375 -6.679688 L 59.59375 0 L 77.570312 0 L 77.570312 -95.679688 Z M 40.585938 -15.796875 C 30.054688 -15.796875 22.476562 -23.757812 22.476562 -35.0625 C 22.476562 -46.234375 30.054688 -54.324219 40.585938 -54.324219 C 50.988281 -54.324219 58.308594 -46.363281 58.308594 -35.0625 C 58.308594 -23.632812 50.988281 -15.796875 40.585938 -15.796875 Z M 40.585938 -15.796875" transform="translate(348.023 146.112)"/></g></g></g><g fill="#1D1233"><g><g><path d="M 36.21875 -71.664062 C 21.320312 -71.664062 9.246094 -64.214844 5.136719 -52.65625 L 21.703125 -44.695312 C 23.757812 -50.988281 29.410156 -54.96875 36.21875 -54.96875 C 42.640625 -54.96875 47.003906 -51.5 47.003906 -46.234375 L 47.003906 -43.921875 L 25.042969 -39.300781 C 10.789062 -36.347656 2.570312 -29.539062 2.570312 -19.136719 C 2.570312 -7.449219 12.585938 1.542969 28.511719 1.542969 C 36.601562 1.542969 43.023438 -0.898438 48.289062 -6.421875 L 48.289062 0 L 66.269531 0 L 66.269531 -46.234375 C 66.269531 -61.261719 54.070312 -71.664062 36.21875 -71.664062 Z M 31.464844 -12.585938 C 25.941406 -12.585938 22.476562 -15.15625 22.476562 -19.394531 C 22.476562 -22.605469 24.53125 -25.042969 28.511719 -25.941406 L 47.003906 -30.054688 L 47.003906 -26.714844 C 47.003906 -18.878906 40.199219 -12.585938 31.464844 -12.585938 Z M 31.464844 -12.585938" transform="translate(432.01 146.112)"/></g></g></g><g fill="#1D1233"><g><g><path d="M 53.683594 -70.125 L 37.117188 -24.660156 L 20.550781 -70.125 L 0 -70.125 L 27.484375 0 L 25.6875 3.980469 C 24.015625 7.707031 21.832031 11.945312 14.128906 11.945312 C 11.300781 11.945312 7.835938 11.429688 5.394531 10.660156 L 5.394531 26.457031 C 8.347656 27.996094 12.328125 28.640625 16.4375 28.640625 C 35.320312 28.640625 41.226562 14.382812 43.792969 7.707031 L 74.234375 -70.125 Z M 53.683594 -70.125" transform="translate(502.127 146.112)"/></g></g></g><path fill="#FFBD59" d="M 580.332031 119.882812 C 572.484375 119.882812 566.121094 126.246094 566.121094 134.097656 C 566.121094 141.949219 572.484375 148.3125 580.332031 148.3125 C 588.183594 148.3125 594.546875 141.949219 594.546875 134.097656 C 594.546875 126.246094 588.183594 119.882812 580.332031 119.882812"/></svg>